<!--?xml version="1.0" encoding="utf-8"?-->
<!-- Generator: Adobe Illustrator 18.1.1, SVG Export Plug-In . SVG Version: 6.00 Build 0)  -->

<svg version="1.1" id="_x31_0" xmlns="http://www.w3.org/2000/svg" xmlns:xlink="http://www.w3.org/1999/xlink" x="0px" y="0px" viewBox="0 0 512 512" style="width: 256px; height: 256px; opacity: 1;" xml:space="preserve">
<style type="text/css">
	.st0{fill:#374149;}
</style>
<g>
	<path class="st0" d="M492.502,424.183c-0.481-2.5-1.25-5-2.309-7.308c-1.152-2.598-2.5-5.098-4.23-7.215
		c0-0.195-0.195-0.289-0.195-0.289c-6.828-11.641-16.926-21.547-29.527-28.184c-15.294-8.273-20.102-5.965-26.738-9.426
		c-9.524-15.969-30.203-54.922-40.207-67.617c-10.098-12.891-7.695-26.934-9.332-58.676c-1.055-20.39,1.347-39.051,3.078-54.824
		c11.93-22.223,9.714-37.325,5.773-46.172c-3.078-6.926-8.273-12.118-14.621-15.004c-2.598-4.809-5.77-10.195-9.618-16.547
		c-3.175-64.441-51.847-98.683-68.87-100.996c0,0-7.309-11.926-39.727-11.926c-32.414,0-39.722,11.926-39.722,11.926
		c-17.027,2.313-65.695,36.555-68.965,100.996c-3.656,6.254-6.734,11.641-9.43,16.454c-6.73,2.785-11.926,8.078-15.098,15.098
		c-3.946,8.847-6.156,23.949,5.77,46.266c0.098,0.195,0.289,0.484,0.382,0.77c1.828,15.582,3.946,33.953,2.985,53.961
		c-1.539,31.742-5.676,49.726-14.332,63.484c-8.946,14.043-25.875,48.958-35.11,62.809c-6.637,3.461-11.348,1.153-26.738,9.426
		c-11.832,6.254-21.449,15.391-28.278,26.164c-2.503,2.79-4.523,6.059-6.062,9.524c-1.25,3.078-2.113,6.152-2.598,9.617
		c0,0,0,0,0,0.098c-2.21,7.79-3.172,16.062-2.594,24.43c1.152,18.563,4.133,39.821,7.886,60.981h463.809
		c3.754-21.16,6.832-42.418,7.985-60.981C496.349,441.785,495.197,432.742,492.502,424.183z M336.241,187.707
		c0.027-0.082,0.098-0.226,0.129-0.313c0.007,0.156,0.023,0.363,0.023,0.363c1.058-3.175,5.098-10.675,7.406-16.93
		c4.426-12.504,11.445-20.199,13.082-21.351c0.29-0.29,3.559-1.539,6.157-1.539c0.382,0,0.77,0,1.25,0.098
		c4.902,1.246,11.637,11.156,0,32.988c-9.714,18.278-18.758,29.531-25.586,29.531c-1.157,0-2.223-0.438-3.207-1.031
		c-0.187-0.144-0.41-0.214-0.578-0.386c-0.004,0.015-0.008,0.035-0.011,0.054c-0.047-0.031-0.102-0.046-0.149-0.082
		c-1.058,6.445-2.691,13.277-5.191,20.394c-2.695,9.906-21.066,30.586-33.859,42.414c-4.231,3.946-7.985,7.024-10.196,8.371
		c-1.73,0.962-3.847,2.406-6.347,3.942c-2.504,1.539-5.098,3.274-7.887,4.906c-5.578,3.367-10.965,6.058-14.14,6.058
		c-0.387,0-0.867,0-1.157-0.094c-0.382,0.094-0.766,0.094-1.152,0.094c-3.27,0-8.656-2.691-14.141-6.058
		c-2.019-1.25-4.039-2.5-5.961-3.653c-3.27-2.117-6.156-3.945-8.176-5.195c-2.406-1.347-6.351-4.617-10.774-8.851
		c-12.89-11.926-30.683-32.125-33.378-41.934c-1.989-5.664-3.313-11.074-4.352-16.324c-0.23-1.317-0.574-2.622-0.746-3.942
		c-0.02,0.012-0.043,0.015-0.062,0.031c-0.008-0.051-0.024-0.11-0.031-0.16c-1.157,0.867-2.598,1.445-3.946,1.445
		c-7.019,0-16.254-11.254-25.969-29.531c-11.641-21.832-4.809-31.742,0-32.988c0.481-0.098,0.863-0.098,1.344-0.098
		c2.504,0,5.675,1.25,6.062,1.539c0.996,0.691,7.422,6.882,12.234,15.695c1.172,2.23,2.262,4.582,3.09,7.113l-0.058-0.534
		c0.066,0.179,0.156,0.339,0.218,0.523c-0.191-2.02-0.578-4.809-0.77-7.985c-10.582-46.461,62.715-88.109,64.543-88.109
		c4.809,2.886,12.793,7.695,22.023,13.273c25.684,15.298,61.465,36.458,68.102,41.364c7.246,5.394,10.778,38.648,11.898,51.675
		C336.189,185.406,336.272,187.34,336.241,187.707z M208.561,357.047l5.098-60.118c0.77,0.481,1.348,0.863,2.019,1.25
		c1.157,0.77,2.887,1.824,4.809,3.078c13.852,8.946,23.855,14.813,34.34,14.813h2.309c10.386,0,20.199-5.774,34.05-14.621
		c2.02-1.25,3.75-2.402,5.191-3.27c0.305-0.23,0.738-0.512,1.137-0.832c0.11-0.055,0.184-0.11,0.313-0.161l5.187,60.051
		c0.676,7.886,6.832,14.43,14.91,15.676c26.645,3.945,49.344,10.777,65.313,20.202c4.519,2.79,3.461,9.52-1.734,10.578
		c-5.383,1.156-10.965,2.402-16.446,3.754c-46.266,11.636-86.664,30.968-103.977,56.171c-2.598,3.653-7.89,3.653-10.39,0
		c-17.504-25.203-58-44.535-104.074-56.27c-5.48-1.347-10.965-2.598-16.254-3.754c-5.387-1.054-6.348-7.882-1.73-10.578
		c15.965-9.328,38.473-16.16,65.019-20.199C201.733,371.57,207.889,365.031,208.561,357.047z" style="fill: rgb(75, 75, 75);"></path>
</g>
</svg>
