<!--?xml version="1.0" encoding="utf-8"?-->
<!-- Generator: Adobe Illustrator 18.1.1, SVG Export Plug-In . SVG Version: 6.00 Build 0)  -->

<svg version="1.1" id="_x31_0" xmlns="http://www.w3.org/2000/svg" xmlns:xlink="http://www.w3.org/1999/xlink" x="0px" y="0px" viewBox="0 0 512 512" style="width: 256px; height: 256px; opacity: 1;" xml:space="preserve">
<style type="text/css">
	.st0{fill:#374149;}
</style>
<g>
	<path class="st0" d="M511.984,497.998c0,0-5.242-55.664-9.312-76.214c-4.406-22.242-100.981-64.711-127.164-81.004
		c-40.723-23.274-49.41-34.778-56.973-36.52h-2.328c0-15.515,0-35.125,0-42.109c7.359-11.062,13.043-28.539,14.191-45.758
		c0.191-2.422,0.301-4.82,0.313-7.179c14.805,14.144,30.449-18.891,33.934-39.352c1.562-9.195-3.129-11.828-6.258-13.206
		c-0.238-0.118-0.48-0.238-0.706-0.352c4.105-4.898,10.59-43.492,3.847-64.114c-6.406-19.598-31.844-53.062-51.488-66.906
		C288.57,10.158,266.695,1.139,251.274,1.139c-16.614-0.004-30.778,19.602-38.969,38.313c-0.102,0.218-0.219,0.465-0.309,0.668
		c-25.886-12.798-44.617,23.777-53.809,40.722c-9.234,17.031-11.156,41.39-6.105,66.066c0.625,3.141,1.328,6.293,2.171,9.457
		c-3.062,1.313-8.59,3.645-6.914,13.496c3.43,20.145,18.644,52.387,33.242,39.883c0.266-0.195,0.523-0.289,0.793-0.508
		c-0.203,19.386,3.074,40.062,14.398,52.914c0,6.984,0,26.594,0,42.109h-2.328c-7.562,1.742-16.246,13.246-56.973,36.52
		c-26.18,16.293-122.762,58.762-127.164,81.004C5.238,442.334,0,497.998,0,497.998c0,7.106,115.254,12.863,257.922,12.863
		c142.664,0,254.078-5.758,254.078-12.863H511.984z"></path>
</g>
</svg>
