<svg width="441" height="71" viewBox="0 0 441 71" fill="none" xmlns="http://www.w3.org/2000/svg">
<path d="M1 13.8C1 10.2644 1 8.49657 1.44207 7.0596C2.41594 3.89399 4.89399 1.41594 8.0596 0.44207C9.49657 0 11.2644 0 14.8 0H79.2C82.7356 0 84.5034 0 85.9404 0.44207C89.106 1.41594 91.5841 3.89399 92.5579 7.0596C93 8.49657 93 10.2644 93 13.8V57.2C93 60.7356 93 62.5034 92.5579 63.9404C91.5841 67.106 89.106 69.5841 85.9404 70.5579C84.5034 71 82.7356 71 79.2 71H14.8C11.2644 71 9.49657 71 8.0596 70.5579C4.89399 69.5841 2.41594 67.106 1.44207 63.9404C1 62.5034 1 60.7356 1 57.2V13.8Z" fill="#2F5C2E"/>
<path d="M56.2474 23.7227C56.0319 21.7068 55.124 20.1372 53.5237 19.0138C51.9387 17.8905 49.8766 17.3288 47.3376 17.3288C45.5525 17.3288 44.0214 17.5981 42.7442 18.1367C41.467 18.6753 40.4898 19.4062 39.8127 20.3295C39.1356 21.2528 38.7894 22.3069 38.774 23.4918C38.774 24.4767 38.9971 25.3307 39.4434 26.054C39.9051 26.7772 40.5283 27.3928 41.3131 27.9006C42.0979 28.393 42.9673 28.8085 43.9214 29.147C44.8755 29.4856 45.8372 29.7702 46.8067 30.0011L51.2385 31.109C53.0235 31.5245 54.7393 32.0862 56.3859 32.794C58.0478 33.5019 59.5328 34.3944 60.8408 35.4716C62.1642 36.5488 63.2106 37.8491 63.98 39.3725C64.7494 40.896 65.1341 42.681 65.1341 44.7276C65.1341 47.4975 64.4262 49.9366 63.0105 52.0447C61.5948 54.1375 59.5482 55.7764 56.8706 56.9613C54.2084 58.1308 50.9846 58.7156 47.1991 58.7156C43.5213 58.7156 40.3282 58.1462 37.6199 57.0075C34.927 55.8687 32.8188 54.2068 31.2953 52.0217C29.7873 49.8365 28.9717 47.1744 28.8486 44.0352H37.2737C37.3968 45.6817 37.9046 47.0513 38.7971 48.1438C39.6896 49.2364 40.8514 50.052 42.2825 50.5906C43.729 51.1291 45.3448 51.3984 47.1298 51.3984C48.9918 51.3984 50.623 51.1214 52.0233 50.5675C53.439 49.9981 54.547 49.2133 55.3472 48.2131C56.1474 47.1974 56.5551 46.0125 56.5705 44.6584C56.5551 43.4273 56.1935 42.4117 55.4857 41.6115C54.7778 40.7959 53.7853 40.1188 52.508 39.5803C51.2462 39.0263 49.7689 38.5339 48.0762 38.103L42.698 36.718C38.8048 35.7178 35.7271 34.2021 33.4651 32.1708C31.2184 30.1242 30.095 27.4081 30.095 24.0227C30.095 21.2375 30.8491 18.7984 32.3571 16.7056C33.8805 14.6128 35.9503 12.9893 38.5663 11.8352C41.1823 10.6657 44.1445 10.081 47.453 10.081C50.8076 10.081 53.7468 10.6657 56.2705 11.8352C58.8095 12.9893 60.8023 14.5974 62.2488 16.6594C63.6953 18.7061 64.4416 21.0605 64.4878 23.7227H56.2474Z" fill="white"/>
<path d="M118.41 59.5114C115.796 59.5114 113.552 58.9375 111.677 57.7898C109.813 56.642 108.376 55.0568 107.364 53.0341C106.364 51 105.864 48.6591 105.864 46.0114C105.864 43.3523 106.376 41.0057 107.398 38.9716C108.421 36.9261 109.864 35.3352 111.728 34.1989C113.603 33.0511 115.819 32.4773 118.376 32.4773C120.501 32.4773 122.381 32.8693 124.018 33.6534C125.665 34.4261 126.978 35.5227 127.955 36.9432C128.932 38.3523 129.489 40 129.626 41.8864H123.728C123.489 40.625 122.921 39.5739 122.023 38.733C121.137 37.8807 119.949 37.4545 118.461 37.4545C117.199 37.4545 116.091 37.7955 115.137 38.4773C114.182 39.1477 113.438 40.1136 112.904 41.375C112.381 42.6364 112.12 44.1477 112.12 45.9091C112.12 47.6932 112.381 49.2273 112.904 50.5114C113.427 51.7841 114.16 52.767 115.103 53.4602C116.057 54.142 117.177 54.483 118.461 54.483C119.37 54.483 120.182 54.3125 120.898 53.9716C121.626 53.6193 122.234 53.1136 122.722 52.4545C123.211 51.7955 123.546 50.9943 123.728 50.0511H129.626C129.478 51.9034 128.932 53.5455 127.989 54.9773C127.046 56.3977 125.762 57.5114 124.137 58.3182C122.512 59.1136 120.603 59.5114 118.41 59.5114ZM150.463 43.6591V59H144.292V24.0909H150.326V37.267H150.633C151.247 35.7898 152.196 34.625 153.48 33.7727C154.775 32.9091 156.423 32.4773 158.423 32.4773C160.241 32.4773 161.826 32.858 163.179 33.6193C164.531 34.3807 165.576 35.4943 166.315 36.9602C167.065 38.4261 167.44 40.2159 167.44 42.3295V59H161.27V43.2841C161.27 41.5227 160.815 40.1534 159.906 39.1761C159.008 38.1875 157.747 37.6932 156.122 37.6932C155.031 37.6932 154.054 37.9318 153.19 38.4091C152.338 38.875 151.667 39.5511 151.179 40.4375C150.701 41.3239 150.463 42.3977 150.463 43.6591ZM194.75 59.5114C192.193 59.5114 189.978 58.9489 188.103 57.8239C186.228 56.6989 184.773 55.125 183.739 53.1023C182.716 51.0795 182.205 48.7159 182.205 46.0114C182.205 43.3068 182.716 40.9375 183.739 38.9034C184.773 36.8693 186.228 35.2898 188.103 34.1648C189.978 33.0398 192.193 32.4773 194.75 32.4773C197.307 32.4773 199.523 33.0398 201.398 34.1648C203.273 35.2898 204.722 36.8693 205.745 38.9034C206.779 40.9375 207.296 43.3068 207.296 46.0114C207.296 48.7159 206.779 51.0795 205.745 53.1023C204.722 55.125 203.273 56.6989 201.398 57.8239C199.523 58.9489 197.307 59.5114 194.75 59.5114ZM194.784 54.5682C196.171 54.5682 197.33 54.1875 198.262 53.4261C199.193 52.6534 199.887 51.6193 200.341 50.3239C200.807 49.0284 201.04 47.5852 201.04 45.9943C201.04 44.392 200.807 42.9432 200.341 41.6477C199.887 40.3409 199.193 39.3011 198.262 38.5284C197.33 37.7557 196.171 37.3693 194.784 37.3693C193.364 37.3693 192.182 37.7557 191.239 38.5284C190.307 39.3011 189.608 40.3409 189.142 41.6477C188.688 42.9432 188.461 44.392 188.461 45.9943C188.461 47.5852 188.688 49.0284 189.142 50.3239C189.608 51.6193 190.307 52.6534 191.239 53.4261C192.182 54.1875 193.364 54.5682 194.784 54.5682ZM233.553 59.5114C230.997 59.5114 228.781 58.9489 226.906 57.8239C225.031 56.6989 223.576 55.125 222.542 53.1023C221.519 51.0795 221.008 48.7159 221.008 46.0114C221.008 43.3068 221.519 40.9375 222.542 38.9034C223.576 36.8693 225.031 35.2898 226.906 34.1648C228.781 33.0398 230.997 32.4773 233.553 32.4773C236.11 32.4773 238.326 33.0398 240.201 34.1648C242.076 35.2898 243.525 36.8693 244.548 38.9034C245.582 40.9375 246.099 43.3068 246.099 46.0114C246.099 48.7159 245.582 51.0795 244.548 53.1023C243.525 55.125 242.076 56.6989 240.201 57.8239C238.326 58.9489 236.11 59.5114 233.553 59.5114ZM233.588 54.5682C234.974 54.5682 236.133 54.1875 237.065 53.4261C237.997 52.6534 238.69 51.6193 239.144 50.3239C239.61 49.0284 239.843 47.5852 239.843 45.9943C239.843 44.392 239.61 42.9432 239.144 41.6477C238.69 40.3409 237.997 39.3011 237.065 38.5284C236.133 37.7557 234.974 37.3693 233.588 37.3693C232.167 37.3693 230.985 37.7557 230.042 38.5284C229.11 39.3011 228.411 40.3409 227.945 41.6477C227.491 42.9432 227.264 44.392 227.264 45.9943C227.264 47.5852 227.491 49.0284 227.945 50.3239C228.411 51.6193 229.11 52.6534 230.042 53.4261C230.985 54.1875 232.167 54.5682 233.588 54.5682ZM267.107 24.0909V59H260.936V24.0909H267.107ZM290.671 59L280.819 24.0909H287.62L293.91 49.7443H294.234L300.949 24.0909H307.137L313.87 49.7614H314.177L320.466 24.0909H327.268L317.415 59H311.177L304.188 34.5057H303.915L296.91 59H290.671ZM345.842 59.5284C344.183 59.5284 342.689 59.233 341.359 58.642C340.041 58.0398 338.995 57.1534 338.223 55.983C337.461 54.8125 337.081 53.3693 337.081 51.6534C337.081 50.1761 337.353 48.9545 337.899 47.9886C338.444 47.0227 339.189 46.25 340.132 45.6705C341.075 45.0909 342.138 44.6534 343.319 44.358C344.513 44.0511 345.745 43.8295 347.018 43.6932C348.552 43.5341 349.797 43.392 350.751 43.267C351.706 43.1307 352.399 42.9261 352.831 42.6534C353.274 42.3693 353.495 41.9318 353.495 41.3409V41.2386C353.495 39.9545 353.115 38.9602 352.353 38.2557C351.592 37.5511 350.495 37.1989 349.064 37.1989C347.552 37.1989 346.353 37.5284 345.467 38.1875C344.592 38.8466 344.001 39.625 343.694 40.5227L337.933 39.7045C338.388 38.1136 339.138 36.7841 340.183 35.7159C341.228 34.6364 342.507 33.8295 344.018 33.2955C345.53 32.75 347.2 32.4773 349.03 32.4773C350.291 32.4773 351.547 32.625 352.797 32.9205C354.047 33.2159 355.189 33.7045 356.223 34.3864C357.257 35.0568 358.086 35.9716 358.711 37.1307C359.348 38.2898 359.666 39.7386 359.666 41.4773V59H353.734V55.4034H353.53C353.155 56.1307 352.626 56.8125 351.944 57.4489C351.274 58.0739 350.427 58.5795 349.405 58.9659C348.393 59.3409 347.206 59.5284 345.842 59.5284ZM347.444 54.9943C348.683 54.9943 349.757 54.75 350.666 54.2614C351.575 53.7614 352.274 53.1023 352.763 52.2841C353.263 51.4659 353.513 50.5739 353.513 49.608V46.5227C353.319 46.6818 352.99 46.8295 352.524 46.9659C352.069 47.1023 351.558 47.2216 350.99 47.3239C350.422 47.4261 349.859 47.517 349.302 47.5966C348.745 47.6761 348.263 47.7443 347.853 47.8011C346.933 47.9261 346.109 48.1307 345.382 48.4148C344.655 48.6989 344.081 49.0966 343.66 49.608C343.24 50.108 343.03 50.7557 343.03 51.5511C343.03 52.6875 343.444 53.5455 344.274 54.125C345.103 54.7045 346.16 54.9943 347.444 54.9943ZM397.919 32.8182L388.595 59H381.777L372.453 32.8182H379.033L385.05 52.267H385.323L391.357 32.8182H397.919ZM422.489 59.5114C419.864 59.5114 417.597 58.9659 415.688 57.875C413.791 56.7727 412.33 55.2159 411.308 53.2045C410.285 51.1818 409.774 48.8011 409.774 46.0625C409.774 43.3693 410.285 41.0057 411.308 38.9716C412.342 36.9261 413.785 35.3352 415.637 34.1989C417.489 33.0511 419.666 32.4773 422.166 32.4773C423.779 32.4773 425.302 32.7386 426.734 33.2614C428.177 33.7727 429.45 34.5682 430.552 35.6477C431.666 36.7273 432.541 38.1023 433.177 39.7727C433.813 41.4318 434.132 43.4091 434.132 45.7045V47.5966H412.671V43.4375H428.217C428.205 42.2557 427.95 41.2045 427.45 40.2841C426.95 39.3523 426.251 38.6193 425.353 38.0852C424.467 37.5511 423.433 37.2841 422.251 37.2841C420.989 37.2841 419.882 37.5909 418.927 38.2045C417.972 38.8068 417.228 39.6023 416.694 40.5909C416.171 41.5682 415.904 42.642 415.893 43.8125V47.4432C415.893 48.9659 416.171 50.2727 416.728 51.3636C417.285 52.4432 418.063 53.2727 419.063 53.8523C420.063 54.4205 421.234 54.7045 422.575 54.7045C423.472 54.7045 424.285 54.5795 425.012 54.3295C425.739 54.0682 426.37 53.6875 426.904 53.1875C427.438 52.6875 427.842 52.0682 428.114 51.3295L433.876 51.9773C433.512 53.5 432.819 54.8295 431.796 55.9659C430.785 57.0909 429.489 57.9659 427.91 58.5909C426.33 59.2045 424.524 59.5114 422.489 59.5114Z" fill="#2F5C2E"/>
</svg>
